<?xml version="1.0" standalone="no"?><!DOCTYPE svg PUBLIC "-//W3C//DTD SVG 1.1//EN" "http://www.w3.org/Graphics/SVG/1.1/DTD/svg11.dtd"><svg t="1698471560803" class="icon" viewBox="0 0 1024 1024" version="1.1" xmlns="http://www.w3.org/2000/svg" p-id="1542" xmlns:xlink="http://www.w3.org/1999/xlink" width="200" height="200"><path d="M550.92 261.66l110.13 45.61-32.25-77.87zM661.05 716.78l-110.12 45.61 77.87 32.25zM799.6 659.39l-99.35 41.15-41.15 99.34 144.76 4.27zM700.25 323.51l99.35 41.15 4.26-144.77-144.77 4.27zM794.36 629.1l-32.26-77.88-45.62 110.13zM961.73 512.02c-0.01-123.64-50.15-235.77-131.14-317.19 2.39 2.81 3.83 6.32 3.72 10.04l-5.16 175.68 127.87 120.57c3 2.82 4.7 6.77 4.71 10.9zM716.48 362.7l45.62 110.13 32.26-77.87zM412.37 204.26l99.36 41.16 99.35-41.16L511.73 98.9zM778.33 512.03l41.16 99.35 105.37-99.35-105.37-99.35zM229.1 394.96l32.26 77.87 45.61-110.13zM511.73 746.15l165.56-68.57 68.57-165.55-68.57-165.56-165.56-68.58-165.56 68.58-68.57 165.56 68.57 165.55zM306.97 661.35l-45.61-110.13-32.26 77.88zM818.88 834.61l-175.67-5.19-120.57 127.89a14.942 14.942 0 0 1-10.91 4.72c123.71 0 235.9-50.19 317.32-131.26-2.83 2.4-6.44 3.62-10.17 3.84zM961.73 512.04a15.01 15.01 0 0 1-4.71 10.9L829.15 643.51l5.16 175.66c0.11 3.74-1.34 7.27-3.76 10.08 81.02-81.41 131.17-193.56 131.18-317.21z" p-id="1543"></path><path d="M204.58 189.42l175.67 5.19L500.82 66.74c5.66-6.04 16.16-6.04 21.83 0l120.56 127.87 175.67-5.19c3.7-0.2 7.2 1.32 10.01 3.71-81.42-80.97-193.54-131.1-317.16-131.1-123.65 0-235.8 50.15-317.23 131.16 2.83-2.38 6.36-3.71 10.08-3.77zM189.14 819.18l5.17-175.66L66.44 522.94a14.971 14.971 0 0 1-4.71-10.91c0-4.13 1.7-8.09 4.71-10.91l127.87-120.57-5.17-175.68c-0.1-3.72 1.33-7.22 3.72-10.03-80.99 81.41-131.13 193.55-131.13 317.19 0 123.65 50.15 235.8 131.16 317.22-2.41-2.82-3.85-6.34-3.75-10.07zM500.82 957.31L380.24 829.43l-175.66 5.19c-3.76-0.25-7.34-1.45-10.17-3.84 81.42 81.06 193.62 131.25 317.32 131.25-4.13 0-8.09-1.7-10.91-4.72z" p-id="1544"></path><path d="M98.59 512.03l105.38 99.35 41.15-99.35-41.15-99.35zM362.4 307.27l110.13-45.61-77.87-32.26zM223.86 364.66l99.34-41.15 41.16-99.35-144.76-4.27zM472.53 762.39L362.4 716.78l32.26 77.86zM611.08 819.78l-99.35-41.16-99.36 41.16 99.36 105.38zM323.21 700.54l-99.35-41.15-4.26 144.76 144.76-4.27z" p-id="1545"></path></svg>